<svg width="41" height="42" viewBox="0 0 41 42" fill="none" xmlns="http://www.w3.org/2000/svg">
<path d="M20.5 0C16.4455 0 12.482 1.23163 9.11082 3.53914C5.73961 5.84665 3.11207 9.1264 1.56048 12.9636C0.00888233 16.8009 -0.397086 21.0233 0.393911 25.0969C1.18491 29.1705 3.13734 32.9123 6.00432 35.8492C8.87129 38.7861 12.524 40.7862 16.5007 41.5965C20.4773 42.4068 24.5991 41.9909 28.345 40.4015C32.0909 38.812 35.2926 36.1204 37.5451 32.667C39.7977 29.2135 41 25.1534 41 21C40.9943 15.4323 38.8326 10.0942 34.9894 6.15725C31.1461 2.22026 25.9352 0.00587963 20.5 0ZM22.0769 38.6945V25.8461H26.8077C27.2259 25.8461 27.627 25.676 27.9228 25.373C28.2185 25.0701 28.3846 24.6592 28.3846 24.2308C28.3846 23.8023 28.2185 23.3915 27.9228 23.0885C27.627 22.7856 27.2259 22.6154 26.8077 22.6154H22.0769V17.7692C22.0769 16.9124 22.4092 16.0906 23.0007 15.4847C23.5921 14.8788 24.3943 14.5385 25.2308 14.5385H28.3846C28.8028 14.5385 29.2039 14.3683 29.4997 14.0653C29.7954 13.7624 29.9615 13.3515 29.9615 12.9231C29.9615 12.4946 29.7954 12.0838 29.4997 11.7808C29.2039 11.4779 28.8028 11.3077 28.3846 11.3077H25.2308C23.5579 11.3077 21.9535 11.9885 20.7706 13.2002C19.5876 14.412 18.9231 16.0555 18.9231 17.7692V22.6154H14.1923C13.7741 22.6154 13.373 22.7856 13.0773 23.0885C12.7815 23.3915 12.6154 23.8023 12.6154 24.2308C12.6154 24.6592 12.7815 25.0701 13.0773 25.373C13.373 25.676 13.7741 25.8461 14.1923 25.8461H18.9231V38.6945C14.4777 38.2788 10.3599 36.1236 7.42621 32.6771C4.49249 29.2307 2.96871 24.7583 3.17182 20.1903C3.37493 15.6224 5.2893 11.3104 8.51673 8.15144C11.7441 4.99247 16.0362 3.22964 20.5 3.22964C24.9638 3.22964 29.2559 4.99247 32.4833 8.15144C35.7107 11.3104 37.6251 15.6224 37.8282 20.1903C38.0313 24.7583 36.5075 29.2307 33.5738 32.6771C30.6401 36.1236 26.5223 38.2788 22.0769 38.6945Z" fill="white" fill-opacity="0.48"/>
</svg>
