<svg width="41" height="42" viewBox="0 0 41 42" fill="none" xmlns="http://www.w3.org/2000/svg">
<path d="M20.5 11.3077C18.6287 11.3077 16.7994 11.8761 15.2435 12.9411C13.6875 14.0061 12.4748 15.5199 11.7587 17.2909C11.0426 19.062 10.8552 21.0108 11.2203 22.8909C11.5853 24.771 12.4865 26.498 13.8097 27.8535C15.1329 29.209 16.8188 30.1321 18.6541 30.5061C20.4895 30.8801 22.3919 30.6881 24.1208 29.9545C25.8496 29.2209 27.3273 27.9786 28.367 26.3848C29.4066 24.7909 29.9615 22.917 29.9615 21C29.9589 18.4303 28.9613 15.9665 27.1874 14.1495C25.4136 12.3324 23.0086 11.3104 20.5 11.3077ZM20.5 27.4615C19.2525 27.4615 18.0329 27.0826 16.9956 26.3726C15.9583 25.6626 15.1499 24.6534 14.6725 23.4727C14.195 22.292 14.0701 20.9928 14.3135 19.7394C14.5569 18.486 15.1576 17.3347 16.0398 16.431C16.9219 15.5273 18.0459 14.9119 19.2694 14.6626C20.493 14.4133 21.7613 14.5413 22.9138 15.0303C24.0664 15.5194 25.0516 16.3476 25.7447 17.4102C26.4378 18.4728 26.8077 19.722 26.8077 21C26.8077 22.7137 26.1431 24.3572 24.9602 25.569C23.7773 26.7808 22.1729 27.4615 20.5 27.4615ZM29.9615 0H11.0385C8.11184 0.00320699 5.30598 1.19558 3.23655 3.31549C1.16711 5.4354 0.00313064 8.30969 0 11.3077V30.6923C0.00313064 33.6903 1.16711 36.5646 3.23655 38.6845C5.30598 40.8044 8.11184 41.9968 11.0385 42H29.9615C32.8882 41.9968 35.694 40.8044 37.7635 38.6845C39.8329 36.5646 40.9969 33.6903 41 30.6923V11.3077C40.9969 8.30969 39.8329 5.4354 37.7635 3.31549C35.694 1.19558 32.8882 0.00320699 29.9615 0ZM37.8462 30.6923C37.8462 32.8344 37.0155 34.8888 35.5368 36.4036C34.0582 37.9183 32.0527 38.7692 29.9615 38.7692H11.0385C8.94733 38.7692 6.94185 37.9183 5.4632 36.4036C3.98454 34.8888 3.15385 32.8344 3.15385 30.6923V11.3077C3.15385 9.16556 3.98454 7.11116 5.4632 5.59645C6.94185 4.08173 8.94733 3.23077 11.0385 3.23077H29.9615C32.0527 3.23077 34.0582 4.08173 35.5368 5.59645C37.0155 7.11116 37.8462 9.16556 37.8462 11.3077V30.6923ZM33.1154 10.5C33.1154 10.9792 32.9767 11.4477 32.7167 11.8462C32.4568 12.2447 32.0874 12.5552 31.6552 12.7386C31.223 12.922 30.7474 12.97 30.2885 12.8765C29.8297 12.783 29.4082 12.5522 29.0774 12.2134C28.7466 11.8745 28.5213 11.4427 28.4301 10.9727C28.3388 10.5027 28.3856 10.0155 28.5647 9.57273C28.7437 9.12997 29.0469 8.75154 29.4359 8.48528C29.8249 8.21903 30.2822 8.07692 30.75 8.07692C31.3773 8.07692 31.979 8.33221 32.4226 8.78662C32.8662 9.24104 33.1154 9.85736 33.1154 10.5Z" fill="white" fill-opacity="0.48"/>
</svg>
