<svg width="41" height="42" viewBox="0 0 41 42" fill="none" xmlns="http://www.w3.org/2000/svg">
<path d="M37.8462 0H3.15385C2.31739 0 1.5152 0.340383 0.92374 0.94627C0.332279 1.55216 0 2.37392 0 3.23077V38.7692C0 39.6261 0.332279 40.4478 0.92374 41.0537C1.5152 41.6596 2.31739 42 3.15385 42H37.8462C38.6826 42 39.4848 41.6596 40.0763 41.0537C40.6677 40.4478 41 39.6261 41 38.7692V3.23077C41 2.37392 40.6677 1.55216 40.0763 0.94627C39.4848 0.340383 38.6826 0 37.8462 0ZM37.8462 38.7692H3.15385V3.23077H37.8462V38.7692ZM14.1923 17.7692V30.6923C14.1923 31.1207 14.0262 31.5316 13.7304 31.8346C13.4347 32.1375 13.0336 32.3077 12.6154 32.3077C12.1972 32.3077 11.7961 32.1375 11.5003 31.8346C11.2046 31.5316 11.0385 31.1207 11.0385 30.6923V17.7692C11.0385 17.3408 11.2046 16.9299 11.5003 16.627C11.7961 16.324 12.1972 16.1538 12.6154 16.1538C13.0336 16.1538 13.4347 16.324 13.7304 16.627C14.0262 16.9299 14.1923 17.3408 14.1923 17.7692ZM31.5385 23.4231V30.6923C31.5385 31.1207 31.3723 31.5316 31.0766 31.8346C30.7809 32.1375 30.3798 32.3077 29.9615 32.3077C29.5433 32.3077 29.1422 32.1375 28.8465 31.8346C28.5508 31.5316 28.3846 31.1207 28.3846 30.6923V23.4231C28.3846 22.352 27.9693 21.3248 27.2299 20.5675C26.4906 19.8101 25.4879 19.3846 24.4423 19.3846C23.3967 19.3846 22.394 19.8101 21.6547 20.5675C20.9153 21.3248 20.5 22.352 20.5 23.4231V30.6923C20.5 31.1207 20.3339 31.5316 20.0381 31.8346C19.7424 32.1375 19.3413 32.3077 18.9231 32.3077C18.5049 32.3077 18.1038 32.1375 17.808 31.8346C17.5123 31.5316 17.3462 31.1207 17.3462 30.6923V17.7692C17.3481 17.3736 17.4918 16.9924 17.7499 16.698C18.008 16.4036 18.3626 16.2165 18.7464 16.1722C19.1302 16.1279 19.5166 16.2294 19.8322 16.4575C20.1478 16.6857 20.3707 17.0245 20.4586 17.4098C21.5254 16.6685 22.7691 16.2388 24.0562 16.167C25.3434 16.0952 26.6253 16.3838 27.7644 17.002C28.9035 17.6202 29.8567 18.5446 30.5216 19.6759C31.1865 20.8071 31.538 22.1026 31.5385 23.4231ZM14.9808 12.1154C14.9808 12.5946 14.842 13.0631 14.5821 13.4616C14.3222 13.86 13.9528 14.1706 13.5206 14.354C13.0884 14.5374 12.6128 14.5854 12.1539 14.4919C11.6951 14.3984 11.2736 14.1676 10.9428 13.8288C10.612 13.4899 10.3867 13.0581 10.2955 12.5881C10.2042 12.1181 10.251 11.6309 10.4301 11.1881C10.6091 10.7454 10.9123 10.3669 11.3012 10.1007C11.6902 9.83442 12.1476 9.69231 12.6154 9.69231C13.2427 9.69231 13.8444 9.94759 14.288 10.402C14.7316 10.8564 14.9808 11.4727 14.9808 12.1154Z" fill="white" fill-opacity="0.48"/>
</svg>
